<svg xmlns="http://www.w3.org/2000/svg" viewBox="0 0 1600 900" preserveAspectRatio="xMidYMid slice"><defs><linearGradient id="sky" x2="0" y2="1"><stop stop-color="#071d35"/><stop offset=".55" stop-color="#123b59"/><stop offset="1" stop-color="#020a12"/></linearGradient><linearGradient id="floor" x2="0" y2="1"><stop stop-color="#a8753e"/><stop offset="1" stop-color="#4b2f21"/></linearGradient><radialGradient id="lamp"><stop stop-color="#fff" stop-opacity=".95"/><stop offset=".2" stop-color="#d9f8ff" stop-opacity=".65"/><stop offset="1" stop-color="#8edfff" stop-opacity="0"/></radialGradient><radialGradient id="ball"><stop stop-color="#fff"/><stop offset=".7" stop-color="#ece7d5"/><stop offset="1" stop-color="#a9a18c"/></radialGradient><pattern id="crowd" width="46" height="32" patternUnits="userSpaceOnUse"><rect width="46" height="32" fill="#13283a"/><circle cx="8" cy="10" r="3" fill="#d7b58c"/><circle cx="22" cy="8" r="3" fill="#829bb0"/><circle cx="36" cy="13" r="3" fill="#d8d2aa"/><path d="M4 28q4-10 8 0M18 28q4-10 8 0M32 28q4-10 8 0" stroke="#263f52" stroke-width="5"/></pattern></defs><rect width="1600" height="900" fill="url(#sky)"/><path d="M0 195Q800 80 1600 195L1600 385Q800 290 0 385Z" fill="#183a53"/><path d="M0 282Q800 205 1600 282V455Q800 390 0 455Z" fill="url(#crowd)" opacity=".9"/><path d="M0 355Q800 275 1600 355V425Q800 360 0 425Z" fill="#071522"/><path d="M0 400Q800 320 1600 400V900H0Z" fill="url(#floor)"/><path d="M0 525Q800 445 1600 525M0 700Q800 575 1600 700M800 400V900M135 900Q800 600 1465 900" fill="none" stroke="#f7f7f0" stroke-width="8" opacity=".86"/><path d="M0 462Q800 390 1600 462V510Q800 438 0 510Z" fill="#1f4f7b"/><path d="M60 470H370v34H60zM430 455h310v34H430zM850 455h310v34H850zM1240 470h300v34h-300z" fill="#d9e4ed" opacity=".82"/><g><ellipse cx="175" cy="122" rx="200" ry="110" fill="url(#lamp)"/><ellipse cx="520" cy="72" rx="210" ry="100" fill="url(#lamp)"/><ellipse cx="1080" cy="72" rx="210" ry="100" fill="url(#lamp)"/><ellipse cx="1425" cy="122" rx="200" ry="110" fill="url(#lamp)"/><g fill="#e9fbff"><circle cx="130" cy="100" r="8"/><circle cx="190" cy="94" r="8"/><circle cx="460" cy="55" r="8"/><circle cx="520" cy="51" r="8"/><circle cx="1080" cy="51" r="8"/><circle cx="1140" cy="55" r="8"/><circle cx="1370" cy="94" r="8"/><circle cx="1430" cy="100" r="8"/></g></g><g transform="translate(590 365)"><path d="M110 0h230l38 175H72Z" fill="none" stroke="#e8eef0" stroke-width="8"/><path d="M80 28h290M75 68h300M82 110h286M92 148h268M130 2L105 173M182 2l-8 174M236 2l8 174M290 2l25 171" fill="none" stroke="#dbe3e6" stroke-width="4" opacity=".8"/><path d="M104 173h245" stroke="#c8d2d5" stroke-width="8"/><path d="M0 184h455" stroke="#10293a" stroke-width="12" opacity=".4"/></g><g transform="translate(710 625)"><ellipse cx="90" cy="108" rx="112" ry="24" fill="#221712" opacity=".55"/><circle cx="90" cy="70" r="72" fill="url(#ball)" stroke="#d9d4c5" stroke-width="3"/><path d="M90 8l20 28-12 28H82L70 36zM27 53l35 2 16 24-18 28-34-10zM153 51l-33 5-14 24 19 27 33-11zM64 128l18-25h28l17 25-30 15z" fill="#0b1723"/><path d="M90 8L70 36M27 53l35 2M153 51l-33 5M64 128l18-25" stroke="#f28d36" stroke-width="7"/></g></svg>